HIERARCHY
ROOT Hips
{
   OFFSET 0.00000 0.00000 0.00000
   CHANNELS 6 Xposition Yposition Zposition Zrotation Xrotation Yrotation
   JOINT RightUpLeg
   {
      OFFSET -8.051219 -7.800363 0.091487
      CHANNELS 3 Zrotation Xrotation Yrotation
      JOINT RightLeg
      {
         OFFSET 0.000000 -39.980428 1.235430
         CHANNELS 3 Zrotation Xrotation Yrotation
         JOINT RightFoot
         {
            OFFSET 0.228194 -37.883157 -1.314531
            CHANNELS 3 Zrotation Xrotation Yrotation
            JOINT RightToes
            {
               OFFSET 0.036000 -3.973581 7.649189
               CHANNELS 3 Zrotation Xrotation Yrotation
               End Site
               {
                  OFFSET -0.072000 -0.123703 8.801811
               }
            }
         }
      }
   }
   JOINT Spine
   {
      OFFSET 0.000000 10.701450 0.000000
      CHANNELS 3 Zrotation Xrotation Yrotation
      JOINT Spine1
      {
         OFFSET 0.000000 23.091659 0.114897
         CHANNELS 3 Zrotation Xrotation Yrotation
         JOINT HEad
         {
            OFFSET 0.000000 7.860744 0.010207
            CHANNELS 3 Zrotation Xrotation Yrotation
            End Site
            {
               OFFSET -0.261000 11.496780 2.262555
            }
         }
         JOINT LeftShoulder1
         {
            OFFSET 8.091000 -0.326027 -0.198000
            CHANNELS 3 Zrotation Xrotation Yrotation
            JOINT LeftArm
            {
               OFFSET 9.254430 -0.003042 0.289911
               CHANNELS 3 Zrotation Xrotation Yrotation
               JOINT LeftForeArm
               {
                  OFFSET 29.490208 0.089230 -1.281906
                  CHANNELS 3 Zrotation Xrotation Yrotation
                  JOINT LeftHand
                  {
                     OFFSET 24.807870 0.076826 0.919944
                     CHANNELS 3 Zrotation Xrotation Yrotation
                     End Site
                     {
                        OFFSET 15.069871 -0.540000 1.352619
                     }
                  }
               }
            }
         }
         JOINT RightShoulder
         {
            OFFSET -8.091000 -0.326027 -0.198000
            CHANNELS 3 Zrotation Xrotation Yrotation
            JOINT RightArm
            {
               OFFSET -9.254430 -0.003042 0.289911
               CHANNELS 3 Zrotation Xrotation Yrotation
               JOINT RightForeArm
               {
                  OFFSET -29.607386 0.089230 -1.281906
                  CHANNELS 3 Zrotation Xrotation Yrotation
                  JOINT RightHand
                  {
                     OFFSET -24.742889 0.076826 0.919944
                     CHANNELS 3 Zrotation Xrotation Yrotation
                     End Site
                     {
                        OFFSET -14.968080 -0.540000 1.352619
                     }
                  }
               }
            }
         }
      }
   }
   JOINT LeftUpLeg
   {
      OFFSET 8.051219 -7.800363 0.091487
      CHANNELS 3 Zrotation Xrotation Yrotation
      JOINT LeftLeg
      {
         OFFSET 0.000000 -39.980428 1.235430
         CHANNELS 3 Zrotation Xrotation Yrotation
         JOINT LeftFoot
         {
            OFFSET -0.228194 -37.883157 -1.314531
            CHANNELS 3 Zrotation Xrotation Yrotation
            JOINT LeftToes
            {
               OFFSET -0.036000 -3.973581 7.649189
               CHANNELS 3 Zrotation Xrotation Yrotation
               End Site
               {
                  OFFSET 0.072000 -0.042703 8.801811
               }
            }
         }
      }
   }
}
MOTION
Frames: 18
Frame Time: 0.016667
-304.355808 87.147874 13.767742 -8.684259 15.599677 -146.901987 -23.072015 16.003056 -51.632180 -23.791263 12.516690 73.162323 -22.172148 14.840194 35.064388 6.294103 -20.253951 -21.935221 11.542289 15.717710 101.943305 27.592388 1.293800 -95.914099 -28.364806 1.320512 16.101082 15.272718 251.628458 34.526862 190.830950 150.787983 133.738806 -0.673249 16.844671 -58.964620 -102.527573 -38.082126 -115.759590 38.030975 -29.506345 32.589998 28.854903 -9.898580 36.104831 64.231543 32.616909 83.114837 -7.550412 19.960461 13.336254 28.924792 -22.681912 -69.215764 -28.291410 -6.003043 39.517921 -27.619135 -0.597312 55.296245 -12.447554 -12.383790 -13.827889
-301.742168 86.476258 14.287636 -7.701081 12.734909 -149.041039 -23.870941 15.713204 -45.788372 -18.312533 14.508691 61.013260 -24.638890 12.744049 36.143449 5.696897 -18.992406 -20.776891 9.354234 13.690263 104.351091 27.032123 1.718353 -95.221614 -29.387087 1.138618 15.897993 17.301793 254.253273 37.762600 192.653163 153.941618 132.438242 -1.617072 14.921911 -58.353305 -103.911773 -37.364314 -113.102585 38.457506 -29.381657 33.806414 31.027285 -11.260484 36.760502 63.810352 32.210240 80.494558 -5.684760 19.841944 14.152628 30.229328 -24.435497 -67.521693 -27.535810 -6.271418 35.106322 -27.389258 -0.664553 56.228224 -13.357716 -13.316290 -12.505215
-299.178882 85.856274 14.615719 -7.286624 9.665630 -151.114493 -25.056761 15.691407 -40.483272 -12.484799 15.885444 49.506758 -28.841871 11.202961 37.251319 5.252474 -17.703968 -19.727866 8.478222 12.208349 106.621760 26.321099 3.016613 -94.355245 -29.920221 1.402069 15.708785 19.976814 256.447211 41.199004 194.328458 155.544731 130.978617 -3.762619 13.371113 -58.430206 -106.448669 -36.108396 -117.040974 38.392968 -29.519009 35.047234 32.625645 -13.296690 36.698968 63.968164 31.954654 78.684011 -4.490294 19.789563 14.349874 30.597171 -25.600031 -65.752244 -26.553542 -5.719050 29.026641 -27.547405 -1.742500 57.121681 -14.174742 -14.287603 -11.431395
-296.765457 85.309886 14.799615 -6.742280 8.476711 -153.098308 -26.012325 16.517556 -35.553860 -6.664339 17.129645 39.870399 -30.026082 9.447075 38.190217 4.750552 -17.418002 -19.218607 7.957294 10.891357 108.016635 26.446300 4.083033 -93.394258 -30.228423 1.961949 15.640045 22.009006 257.664734 44.153720 195.780898 156.837304 129.934869 -5.697037 11.650138 -57.790217 -107.765605 -35.577397 -115.101556 38.534309 -29.139052 35.760579 34.282700 -14.687839 36.433298 64.355238 31.983597 77.169834 -3.708412 19.655749 14.189517 31.176388 -26.660028 -64.467321 -26.440323 -3.920287 24.137487 -27.506271 -1.868428 58.125449 -14.831324 -15.031180 -10.529057
-294.539581 84.890069 14.956517 -6.926082 7.628657 -155.012673 -26.606058 17.235646 -31.462320 -1.929365 15.616978 32.818970 -31.608551 7.772550 39.174588 4.311378 -17.676453 -19.254430 7.467239 9.710944 108.817201 26.909557 5.201404 -92.391177 -30.482468 2.610071 15.769908 23.726102 258.448020 46.416070 196.714953 157.317520 129.255716 -7.963762 10.250750 -57.110818 -109.765928 -34.596718 -117.264335 38.799832 -28.552600 36.551699 35.860324 -15.366447 35.892661 65.084456 32.284057 76.147962 -3.607116 19.523502 13.751328 31.526698 -27.274247 -63.498459 -26.497850 -2.899591 19.921416 -27.662814 -1.028845 58.865610 -15.265358 -15.450605 -9.930695
-292.400222 84.610671 15.090112 -6.886969 7.125856 -155.777859 -26.759385 17.397627 -28.537242 0.943013 14.979308 28.993221 -31.481520 6.708454 40.179930 3.859252 -17.586026 -19.006022 7.982684 8.808273 108.725444 27.330027 5.941443 -91.722023 -30.605234 3.315326 16.041070 24.904273 258.333956 48.120735 197.615131 157.421831 128.818952 -10.105888 8.717383 -56.322157 -110.719538 -34.202900 -115.989548 39.111302 -28.051930 36.761868 37.257685 -16.090083 35.370329 65.832013 32.477720 75.336877 -3.579418 19.228779 13.106606 31.565805 -27.374041 -62.863798 -26.003871 -2.487832 16.687822 -27.639192 -0.676876 59.516732 -15.572507 -15.766129 -9.524244
-290.519882 84.451216 15.188843 -6.395965 6.993719 -156.070506 -25.983626 17.434256 -27.239862 3.059568 14.801194 27.727549 -32.669519 5.484005 41.099092 3.327906 -17.373459 -18.442856 8.725863 8.256865 108.425435 27.446495 6.445038 -91.009067 -30.659797 4.070222 16.433869 25.665483 257.764345 49.349718 198.206544 156.858436 128.597217 -12.162733 7.575429 -55.800979 -112.126564 -33.561381 -116.902554 39.073596 -27.959081 37.158486 38.060174 -16.791848 35.176441 66.351374 32.526853 74.340332 -3.888235 19.068720 12.342806 31.464574 -27.009647 -62.551364 -25.773256 -1.730473 15.785097 -26.950504 -0.459962 59.934910 -15.739700 -15.876594 -9.314770
-288.942123 84.495658 15.238472 -5.609834 7.214429 -155.525620 -24.200238 17.147086 -27.338491 2.907599 15.009721 28.269605 -31.283755 4.655897 41.728283 2.782465 -16.779753 -17.589279 9.434185 8.198939 107.841003 27.094394 6.560757 -90.410736 -30.666211 4.860435 16.929980 25.859328 256.564363 50.090114 198.655656 156.003583 128.455545 -13.606618 6.552292 -55.237048 -112.821304 -33.172446 -115.629584 38.678275 -28.317321 37.525927 38.308649 -17.489377 35.378812 66.771410 32.541559 73.353650 -4.421390 18.918953 11.376233 31.125145 -26.261937 -62.129764 -25.392659 -1.399318 17.135990 -25.662750 -0.831266 60.367459 -15.883028 -15.981135 -9.132392
-287.637878 84.684294 15.233794 -5.218502 7.404513 -155.629535 -22.002235 16.070687 -28.685268 0.489282 15.572304 29.871033 -30.434753 4.099902 42.105268 2.246604 -16.727594 -17.090359 10.006888 8.842797 106.965298 27.011303 6.618593 -89.726952 -30.608926 5.709315 17.492755 25.533294 255.187807 50.356987 198.685955 154.787564 128.260858 -14.608173 5.932077 -54.635656 -113.761541 -32.983124 -115.607017 38.317494 -28.715451 37.902547 38.575256 -17.982916 35.840977 67.027918 32.163333 72.294335 -5.426932 18.707075 10.094790 30.748422 -25.710162 -61.689681 -25.587593 -0.664319 19.786633 -24.404618 -0.713672 60.438971 -15.913448 -15.940821 -9.116709
-286.614585 84.968995 15.176883 -5.109716 7.762142 -155.720745 -19.458273 14.519182 -30.988804 -3.403141 16.553957 31.536438 -30.684434 3.931683 42.267673 1.709521 -17.051569 -16.842386 10.003241 9.385249 106.218403 26.903106 6.895664 -88.815976 -30.482209 6.596501 18.112390 24.829496 253.401138 50.578114 197.757213 153.389001 127.303566 -15.272892 5.730250 -54.189642 -114.410019 -32.536194 -114.508012 37.590974 -29.066614 38.052514 38.950564 -18.143764 36.187316 67.611319 32.059241 71.624499 -6.590426 18.553063 8.487130 30.245782 -25.340458 -61.004722 -26.406010 0.098201 23.445932 -22.943142 -0.105536 60.235527 -15.833319 -15.764363 -9.283100
-285.795188 85.364684 15.089980 -5.873542 7.174156 -156.042174 -18.793402 13.019250 -33.237029 -7.192425 16.602679 33.042211 -30.022643 3.829518 42.554244 1.094583 -17.739541 -16.625601 10.912226 9.465485 104.856299 26.759803 4.635709 -87.602285 -30.225827 7.631293 18.743347 26.480966 248.582877 55.071484 201.079253 152.080692 130.585799 -16.139913 5.635660 -55.003629 -115.364286 -31.820625 -114.072929 34.935526 -29.274249 37.284193 38.527591 -18.911969 36.322434 67.248711 31.669347 69.197801 -8.135151 18.420411 5.572797 29.576973 -25.363855 -59.474009 -27.051719 -0.311386 26.569388 -22.310318 0.501226 60.136578 -15.886108 -15.971433 -9.133687
-285.048843 85.754241 14.996074 -6.256701 7.859817 -156.197752 -18.024080 12.723812 -35.900325 -9.692924 15.231554 34.106297 -21.639286 3.557949 42.684007 0.420512 -19.111334 -16.660440 11.011527 9.355729 103.824449 27.107740 5.983870 -86.901494 -29.929742 8.217296 19.421513 25.080468 248.707651 53.680314 200.101142 151.203941 129.010703 -16.634700 5.829248 -54.242012 -115.990969 -31.028262 -113.443411 34.316288 -29.410982 37.593494 39.261707 -19.192222 36.021393 67.598614 31.029864 68.491921 -9.336574 18.281254 4.680092 29.586733 -24.822482 -58.269300 -26.798823 -0.218972 28.942657 -22.486183 1.546366 60.065257 -16.007668 -16.441133 -8.770453
-284.455448 86.274213 14.844759 -6.071119 8.364000 -156.041955 -16.502640 12.379426 -38.424435 -11.556618 14.854010 35.335253 -25.285724 3.544675 42.877230 -0.211952 -19.984210 -16.470523 11.180461 9.228099 102.709352 27.267631 6.737360 -86.223932 -29.515993 8.808856 20.071582 23.474593 248.442148 51.829241 200.297907 150.870805 128.261486 -16.850703 5.224953 -53.124265 -116.208265 -30.777249 -113.753529 34.084642 -29.644626 38.226250 39.744584 -19.346962 35.782634 68.330674 31.012682 68.517514 -9.919046 18.158664 5.458236 29.631164 -24.122184 -57.701138 -26.052713 -0.139114 30.400236 -22.633200 1.934094 59.698749 -16.013877 -16.901505 -8.684368
-283.890167 86.726063 14.679949 -5.441153 9.269510 -156.012749 -15.007968 12.710000 -40.783312 -13.285611 14.092850 36.662755 -22.790181 4.283508 43.157353 -0.793139 -20.350733 -16.046836 11.144952 8.847132 101.803287 27.516452 7.419015 -85.291318 -29.063848 9.431223 20.674885 22.097057 247.947314 50.107289 201.098937 150.359320 127.723895 -17.730271 4.708422 -52.691334 -116.186026 -30.323526 -113.675125 33.687955 -29.583916 38.919893 40.499952 -19.359831 35.503822 68.769370 30.672901 68.038322 -10.265624 17.849227 6.317373 29.766996 -23.090288 -57.820919 -24.748555 0.668438 31.064619 -22.863901 1.834810 59.184463 -15.895298 -17.243881 -8.843538
-283.414932 87.165555 14.504171 -5.067425 9.795273 -155.642512 -14.003259 12.861785 -42.969608 -14.800677 13.541054 38.159225 -22.912459 4.883794 43.399493 -1.318382 -20.590717 -15.605323 11.399332 8.522942 100.615107 27.581339 7.876762 -84.702603 -28.606284 10.058254 21.234986 21.262838 247.090317 48.787218 202.170895 149.591197 127.064769 -18.568002 4.368897 -52.243512 -116.282249 -29.884212 -113.992818 32.977287 -29.755381 39.050316 40.540185 -19.699131 35.341540 69.176818 30.399417 67.344081 -10.418929 17.800566 7.340022 29.632130 -22.283936 -57.634331 -23.832661 0.995863 31.452919 -23.103888 1.527394 58.739784 -15.695329 -17.445802 -9.120233
-283.000026 87.561215 14.314117 -4.763244 10.156296 -155.100482 -13.374502 13.054613 -45.033599 -16.020791 12.971995 39.782614 -21.536430 5.609777 43.660547 -1.758268 -20.677815 -15.194222 11.536535 8.250541 99.486425 27.527616 8.181199 -84.172089 -28.111308 10.668677 21.741373 20.601170 246.032648 47.606446 203.271429 148.588853 126.335058 -19.410855 4.152875 -51.683693 -116.189195 -29.369451 -114.079780 32.194626 -30.043540 39.022841 40.401952 -20.061430 35.338692 69.590605 30.036119 66.586408 -10.605411 17.501059 8.483506 29.392876 -21.622291 -57.326017 -23.106163 1.239995 31.553889 -23.386597 1.023326 58.322418 -15.386731 -17.498960 -9.579730
-282.635761 87.939814 14.114206 -4.533888 10.531573 -154.401139 -12.948527 13.245348 -46.996681 -17.025887 12.696065 41.532598 -20.802304 6.205791 43.894501 -2.093664 -20.675080 -14.897998 11.609576 7.947121 98.421892 27.505988 8.400232 -83.680213 -27.574899 11.265075 22.193438 20.066961 244.862446 46.457557 204.257818 147.332084 125.485929 -20.340187 4.098953 -51.034344 -116.226583 -28.717571 -114.562865 31.554542 -30.345796 38.935616 40.225573 -20.384382 35.367283 70.027969 29.592761 65.893041 -10.725701 17.405019 9.646406 29.088744 -20.899406 -56.936949 -22.447302 1.382679 31.395166 -23.716520 0.426652 57.927285 -14.969294 -17.405286 -10.219548
-282.309871 88.285407 13.910337 -4.445788 11.048682 -153.679707 -12.822396 13.533976 -48.779230 -17.849992 12.703306 43.440232 -19.769276 6.685522 44.182342 -2.324193 -20.582913 -14.720975 11.681539 7.614810 97.195149 27.903993 8.721647 -83.316656 -27.032036 11.858305 22.599405 19.566337 243.667709 45.189457 204.940810 145.810933 124.473081 -21.227869 4.243126 -50.215961 -116.166300 -27.939601 -115.300697 31.229479 -30.373564 38.456093 40.646244 -20.575730 35.077669 70.558443 29.022505 65.393823 -11.025633 17.018895 10.828337 28.752463 -20.020751 -56.456715 -21.877663 1.607293 30.955640 -24.113044 -0.178047 57.552349 -14.431548 -17.127930 -11.050992
